<svg width="121" height="120" viewBox="0 0 121 120" fill="none" xmlns="http://www.w3.org/2000/svg">
<path d="M107.529 0H12.9412C5.80515 0 0 5.80515 0 12.9412V78.8235C0 85.9596 5.80515 91.7647 12.9412 91.7647H43.5735L41.2206 98.8235H39.0588C33.2206 98.8235 28.4706 103.574 28.4706 109.412V116.471C28.4706 118.42 30.0506 120 32 120H88.4706C90.42 120 92 118.42 92 116.471V109.412C92 103.574 87.25 98.8235 81.4118 98.8235H79.25L76.8971 91.7647H107.529C114.665 91.7647 120.471 85.9596 120.471 78.8235V12.9412C120.471 5.80515 114.665 0 107.529 0ZM12.9412 7.05882H107.529C110.773 7.05882 113.412 9.69761 113.412 12.9412V70.5882H7.05882V12.9412C7.05882 9.69761 9.69761 7.05882 12.9412 7.05882ZM84.9412 109.412V112.941H35.5294V109.412C35.5294 107.466 37.1131 105.882 39.0588 105.882H81.4118C83.3575 105.882 84.9412 107.466 84.9412 109.412ZM71.8088 98.8235H48.6618L51.0147 91.7647H69.4559L71.8088 98.8235ZM113.412 78.8235C113.412 82.0671 110.773 84.7059 107.529 84.7059H12.9412C9.69761 84.7059 7.05882 82.0671 7.05882 78.8235V77.6471H113.412V78.8235Z" fill="white"/>
<path d="M76.5634 55.4369C77.2518 56.1262 78.1553 56.4709 79.0588 56.4709C79.9623 56.4709 80.8658 56.1262 81.5542 55.4369L95.6719 41.3192C97.0506 39.9415 97.0506 37.7062 95.6719 36.3284L81.5542 22.2108C80.1765 20.8321 77.9412 20.8321 76.5634 22.2108C75.1847 23.5885 75.1847 25.8229 76.5634 27.2016L88.1848 38.8238L76.5634 50.4461C75.1847 51.8238 75.1847 54.0591 76.5634 55.4369Z" fill="white"/>
<path d="M38.9164 55.4369C39.6048 56.1262 40.5083 56.4709 41.4118 56.4709C42.3153 56.4709 43.2188 56.1262 43.9072 55.4369C45.2859 54.0591 45.2859 51.8238 43.9072 50.4461L32.2858 38.8238L43.9072 27.2016C45.2859 25.8238 45.2859 23.5885 43.9072 22.2108C42.5294 20.8321 40.295 20.8321 38.9164 22.2108L24.7987 36.3284C23.42 37.7062 23.42 39.9405 24.7987 41.3192L38.9164 55.4369Z" fill="white"/>
<path d="M52.0606 63.3482C52.4301 63.4714 52.807 63.5302 53.1774 63.5302C54.6544 63.5302 56.0321 62.5946 56.5248 61.1157L70.6424 18.7628C71.2592 16.9135 70.2592 14.9144 68.4099 14.2986C66.5616 13.6828 64.5625 14.681 63.9458 16.5302L49.8281 58.8832C49.2114 60.7324 50.2114 62.7315 52.0606 63.3482Z" fill="white"/>
</svg>
