<svg width="120" height="120" viewBox="0 0 120 120" fill="none" xmlns="http://www.w3.org/2000/svg">
<path d="M107.5 0H12.4999C5.59992 0.00820312 0.00820313 5.59992 0 12.4999V107.5C0.00820313 114.4 5.59992 119.992 12.4999 120H107.5C114.4 119.992 119.992 114.4 120 107.5V12.4999C119.992 5.59992 114.4 0.00820312 107.5 0ZM115 107.5C115 111.642 111.642 115 107.5 115H12.4999C8.35781 115 4.99992 111.642 4.99992 107.5V12.4999C4.99992 8.35781 8.35781 4.99992 12.4999 4.99992H107.5C111.642 4.99992 115 8.35781 115 12.4999V107.5H115Z" fill="white"/>
<path d="M110 20H10.0001V24.9999H110V20Z" fill="white"/>
<path d="M17.4999 10H12.4999V14.9999H17.4999V10Z" fill="white"/>
<path d="M27.4999 10H22.5V14.9999H27.4999V10Z" fill="white"/>
<path d="M107.5 10H102.5V14.9999H107.5V10Z" fill="white"/>
<path d="M60 37.5C42.0509 37.5 27.4999 52.0507 27.4999 70.0001C27.4999 87.9495 42.0509 102.5 60 102.5C77.9407 102.479 92.4792 87.9405 92.5001 69.9998C92.5001 52.0507 77.9492 37.5 60 37.5ZM60 97.5C44.8123 97.5 32.5001 85.1878 32.5001 70.0001C32.5001 54.8123 44.8123 42.4999 60 42.4999C75.1805 42.5177 87.4821 54.8196 87.4999 69.9998C87.4999 85.1878 75.1878 97.5 60 97.5Z" fill="white"/>
<path d="M75 62.4999H67.5V54.9999C67.5 52.2385 65.2615 50 62.5001 50H57.5001C54.7387 50 52.5002 52.2385 52.5002 54.9999V62.4999H45.0002C42.2388 62.4999 40.0003 64.7384 40.0003 67.4998V72.4998C40.0003 75.2612 42.2388 77.4997 45.0002 77.4997H52.5002V84.9997C52.5002 87.7611 54.7387 89.9996 57.5001 89.9996H62.5001C65.2615 89.9996 67.5 87.7611 67.5 84.9997V77.4997H75C77.7614 77.4997 79.9999 75.2612 79.9999 72.4998V67.4998C79.9999 64.7384 77.7614 62.4999 75 62.4999ZM75 72.4998H64.9999C63.6192 72.4998 62.4998 73.6191 62.4998 74.9998V84.9999H57.4999V74.9998C57.4999 73.6191 56.3805 72.4998 54.9998 72.4998H45V67.4998H55.0001C56.3808 67.4998 57.5001 66.3805 57.5001 64.9998V54.9997H62.5001V64.9998C62.5001 66.3805 63.6194 67.4998 65.0002 67.4998H75V72.4998Z" fill="#3BA6F9"/>
</svg>
