<svg width="128" height="120" viewBox="0 0 128 120" fill="none" xmlns="http://www.w3.org/2000/svg">
<path d="M114.665 37.2973C122.024 36.3605 127.734 30.0631 127.734 22.4532C127.734 14.1994 121.019 7.48441 112.765 7.48441C104.511 7.48441 97.7963 14.1994 97.7963 22.4532C97.7963 30.0631 103.506 36.3605 110.866 37.2973C103.506 38.2341 97.7963 44.5315 97.7963 52.1414V67.3597H90.0624V59.8753C92.1291 59.8753 93.8046 58.1997 93.8046 56.1331C93.8046 54.0664 92.1291 52.3909 90.0624 52.3909H82.578V48.3992C82.578 38.7627 75.2547 30.8066 65.8815 29.7982C73.1855 28.8107 78.8358 22.539 78.8358 14.9688C78.8358 6.71501 72.1208 0 63.8669 0C55.6131 0 48.8981 6.71501 48.8981 14.9688C48.8981 22.539 54.5484 28.8107 61.8524 29.7982C52.4792 30.8066 45.1559 38.7627 45.1559 48.3992V52.3909H37.6715C35.6048 52.3909 33.9293 54.0664 33.9293 56.1331C33.9293 58.1997 35.6048 59.8753 37.6715 59.8753V67.3597H29.9376V52.1414C29.9376 44.5744 24.2924 38.3049 16.9931 37.3133C24.4129 36.4321 30.1871 30.1063 30.1871 22.4532C30.1871 14.1994 23.4721 7.48441 15.2183 7.48441C6.96449 7.48441 0.24948 14.1994 0.24948 22.4532C0.24948 30.0202 5.89472 36.2896 13.194 37.2813C5.77422 38.1625 0 44.4883 0 52.1414V116.258C0 118.324 1.67551 120 3.7422 120H123.992C126.058 120 127.734 118.324 127.734 116.258C127.734 107.075 127.734 61.2092 127.734 52.1414C127.734 44.5315 122.024 38.2341 114.665 37.2973ZM7.73389 22.4532C7.73389 18.3263 11.0914 14.9688 15.2183 14.9688C19.3452 14.9688 22.7027 18.3263 22.7027 22.4532C22.7027 26.5801 19.3452 29.9376 15.2183 29.9376C11.0914 29.9376 7.73389 26.5801 7.73389 22.4532ZM22.4532 112.516H7.48441V92.3077H22.4532V112.516ZM37.422 112.516H29.9376V88.5655C29.9376 86.4988 28.2621 84.8233 26.1954 84.8233H7.48441V52.1414C7.48441 48.0145 10.8419 44.657 14.9688 44.657C19.0957 44.657 22.4532 48.0145 22.4532 52.1414V71.1019C22.4532 73.1686 24.1287 74.8441 26.1954 74.8441H37.422V112.516ZM56.3825 14.9688C56.3825 10.8419 59.74 7.48441 63.8669 7.48441C67.9938 7.48441 71.3513 10.8419 71.3513 14.9688C71.3513 19.0957 67.9938 22.4532 63.8669 22.4532C59.74 22.4532 56.3825 19.0957 56.3825 14.9688ZM52.6403 48.3992C52.6403 42.2088 57.6766 37.1726 63.8669 37.1726C70.0573 37.1726 75.0936 42.2088 75.0936 48.3992V52.3909H52.6403V48.3992ZM82.578 112.516H45.1559V59.8753H82.578V112.516ZM105.281 22.4532C105.281 18.3263 108.638 14.9688 112.765 14.9688C116.892 14.9688 120.249 18.3263 120.249 22.4532C120.249 26.5801 116.892 29.9376 112.765 29.9376C108.638 29.9376 105.281 26.5801 105.281 22.4532ZM120.249 112.516H105.281V92.3077H120.249V112.516ZM120.249 84.8233H101.538C99.4718 84.8233 97.7963 86.4988 97.7963 88.5655V112.516H90.3119V74.8441H101.538C103.605 74.8441 105.281 73.1686 105.281 71.1019V52.1414C105.281 48.0145 108.638 44.657 112.765 44.657C116.892 44.657 120.249 48.0145 120.249 52.1414V84.8233Z" fill="white"/>
</svg>
