<svg width="993" height="40" viewBox="0 0 993 40" fill="none" xmlns="http://www.w3.org/2000/svg">
<path fill-rule="evenodd" clip-rule="evenodd" d="M20 33C27.1797 33 33 27.1797 33 20C33 12.8203 27.1797 7 20 7C12.8203 7 7 12.8203 7 20C7 27.1797 12.8203 33 20 33ZM39.3699 25C37.1497 33.6262 29.3192 40 20 40C8.9543 40 0 31.0457 0 20C0 8.95428 8.9543 0 20 0C28.9553 0 36.5359 5.8858 39.0844 14H321.916C324.464 5.8858 332.045 0 341 0C349.955 0 357.536 5.8858 360.084 14H644.916C647.464 5.8858 655.045 0 664 0C672.955 0 680.536 5.8858 683.084 14H953.916C956.464 5.8858 964.045 0 973 0C984.046 0 993 8.95428 993 20C993 31.0457 984.046 40 973 40C963.681 40 955.85 33.6262 953.63 25H683.37C681.15 33.6262 673.319 40 664 40C654.681 40 646.85 33.6262 644.63 25H360.37C358.15 33.6262 350.319 40 341 40C331.681 40 323.85 33.6262 321.63 25H39.3699ZM341 33C348.18 33 354 27.1797 354 20C354 12.8203 348.18 7 341 7C333.82 7 328 12.8203 328 20C328 27.1797 333.82 33 341 33ZM677 20C677 27.1797 671.18 33 664 33C656.82 33 651 27.1797 651 20C651 12.8203 656.82 7 664 7C671.18 7 677 12.8203 677 20ZM973 33C980.18 33 986 27.1797 986 20C986 12.8203 980.18 7 973 7C965.82 7 960 12.8203 960 20C960 27.1797 965.82 33 973 33Z" fill="url(#paint0_linear)"/>
<defs>
<linearGradient id="paint0_linear" x1="645.5" y1="0.00019014" x2="645.5" y2="32.5" gradientUnits="userSpaceOnUse">
<stop stop-color="white"/>
<stop offset="1" stop-color="#DCDCDD"/>
</linearGradient>
</defs>
</svg>
