<svg width="37" height="15" viewBox="0 0 37 15" fill="none" xmlns="http://www.w3.org/2000/svg">
<path fill-rule="evenodd" clip-rule="evenodd" d="M18.6101 10.7403L4.87126 0.526718C3.92656 -0.175572 2.39491 -0.175573 1.45022 0.526718C0.505526 1.22901 0.505526 2.36765 1.45022 3.06994L16.7895 14.4733C17.2898 14.8452 17.9548 15.0202 18.61 14.9981C19.2652 15.0202 19.9303 14.8453 20.4307 14.4733L35.77 3.06995C36.7147 2.36766 36.7147 1.22902 35.77 0.526728C34.8253 -0.175562 33.2937 -0.175562 32.349 0.526728L18.6101 10.7403ZM18.6101 12.1034L19.2937 12.6116C19.7321 12.9375 19.7321 13.4658 19.2937 13.7917C19.1026 13.9338 18.8596 14.0139 18.61 14.0321C18.3605 14.0139 18.1176 13.9338 17.9265 13.7917C17.4882 13.4658 17.4882 12.9375 17.9265 12.6117L18.6101 12.1034ZM17.6933 11.4218L17.0096 11.9301C16.6779 12.1767 16.4626 12.4772 16.3639 12.7936L2.36707 2.38835C1.92873 2.06249 1.92873 1.53417 2.36707 1.20831C2.8054 0.882448 3.51608 0.882448 3.95441 1.20831L17.6933 11.4218ZM19.527 11.4218L20.2106 11.9301C20.5424 12.1767 20.7576 12.4772 20.8564 12.7937L34.8532 2.38836C35.2915 2.0625 35.2915 1.53418 34.8532 1.20832C34.4148 0.882459 33.7041 0.882459 33.2658 1.20832L19.527 11.4218Z" fill="url(#paint0_linear)"/>
<path d="M17.6933 11.4218L17.0096 11.9301C16.6779 12.1767 16.4626 12.4772 16.3639 12.7936L2.36707 2.38835C1.92873 2.06249 1.92873 1.53417 2.36707 1.20831C2.8054 0.882448 3.51608 0.882448 3.95441 1.20831L17.6933 11.4218Z" fill="url(#paint1_linear)"/>
<path d="M20.2106 11.9301L19.527 11.4218L33.2658 1.20832C33.7041 0.882459 34.4148 0.882459 34.8532 1.20832C35.2915 1.53418 35.2915 2.0625 34.8532 2.38836L20.8564 12.7937C20.7576 12.4772 20.5424 12.1767 20.2106 11.9301Z" fill="url(#paint2_linear)"/>
<path d="M19.2937 12.6116L18.6101 12.1034L17.9265 12.6117C17.4882 12.9375 17.4882 13.4658 17.9265 13.7917C18.1176 13.9338 18.3605 14.0139 18.61 14.0321C18.8596 14.0139 19.1026 13.9338 19.2937 13.7917C19.7321 13.4658 19.7321 12.9375 19.2937 12.6116Z" fill="url(#paint3_linear)"/>
<defs>
<linearGradient id="paint0_linear" x1="18.6101" y1="0" x2="18.6101" y2="15" gradientUnits="userSpaceOnUse">
<stop stop-color="white"/>
<stop offset="1" stop-color="#C7C3D0"/>
</linearGradient>
<linearGradient id="paint1_linear" x1="18.6101" y1="0" x2="18.6101" y2="15" gradientUnits="userSpaceOnUse">
<stop stop-color="white"/>
<stop offset="1" stop-color="#C7C3D0"/>
</linearGradient>
<linearGradient id="paint2_linear" x1="18.6101" y1="0" x2="18.6101" y2="15" gradientUnits="userSpaceOnUse">
<stop stop-color="white"/>
<stop offset="1" stop-color="#C7C3D0"/>
</linearGradient>
<linearGradient id="paint3_linear" x1="18.6101" y1="0" x2="18.6101" y2="15" gradientUnits="userSpaceOnUse">
<stop stop-color="white"/>
<stop offset="1" stop-color="#C7C3D0"/>
</linearGradient>
</defs>
</svg>
