<svg width="165" height="165" viewBox="0 0 165 165" fill="none" xmlns="http://www.w3.org/2000/svg">
<g clip-path="url(#clip0)">
<path d="M160.166 77.6659H157.233V77.3223C157.233 65.2512 150.449 55.553 141.611 50.5793C146.421 46.3684 149.467 40.1912 149.467 33.3116C149.467 20.6539 139.168 10.3552 126.511 10.3552C113.853 10.3552 103.554 20.6539 103.554 33.3116C103.554 40.1912 106.601 46.3684 111.409 50.5793C102.551 55.5618 95.7884 65.2839 95.7884 77.3223V77.6659H53.0165C48.5765 74.4143 43.1081 72.4883 37.1952 72.4883C22.3962 72.4883 10.3553 84.5279 10.3553 99.3282C10.3553 108.046 14.5359 115.804 20.9964 120.71C8.54256 127.09 0 140.061 0 154.988V160.166C0 162.836 2.16396 165 4.83398 165H72.1447C74.8147 165 76.9787 162.836 76.9787 160.166V154.988C76.9787 151.277 76.4487 147.687 75.4643 144.289H155.332V149.811C155.332 152.479 157.496 154.645 160.166 154.645C162.836 154.645 165 152.479 165 149.811V82.4999C165 79.8299 162.836 77.6659 160.166 77.6659ZM113.222 33.3116C113.222 25.9851 119.183 20.0232 126.511 20.0232C133.837 20.0232 139.799 25.9851 139.799 33.3116C139.799 40.6381 133.838 46.6 126.511 46.6C119.184 46.6 113.222 40.6381 113.222 33.3116ZM105.456 77.3223C105.456 65.5105 115.073 56.268 126.511 56.268C137.916 56.268 147.565 65.4765 147.565 77.3223V77.6659H105.456V77.3223ZM37.1952 82.1563C46.6631 82.1563 54.366 89.8592 54.366 99.3282C54.366 108.796 46.6631 116.499 37.1952 116.499C27.7262 116.499 20.0233 108.796 20.0233 99.3282C20.0233 89.8592 27.7262 82.1563 37.1952 82.1563ZM67.3107 155.332H9.66797V154.988C9.66797 139.097 22.5976 126.167 38.4893 126.167C54.3811 126.167 67.3107 139.097 67.3107 154.988V155.332ZM54.3723 119.931C60.2725 115.003 64.0339 107.598 64.0339 99.3282C64.0339 95.0179 63.008 90.9468 61.1952 87.3339H155.332V134.621H71.1338C67.1269 128.224 61.2959 123.08 54.3723 119.931Z" fill="white"/>
<path d="M17.7787 64.0339H87.6777C91.5297 64.0339 93.8397 59.7287 91.6997 56.5186L82.1563 42.2042V17.7787C82.1563 8.03398 74.2948 0 64.3776 0H17.7787C7.91439 0 0 7.98489 0 17.7787V46.2564C0 56.0276 7.88544 64.0339 17.7787 64.0339ZM9.66797 17.7787C9.66797 13.3539 13.228 9.66797 17.7787 9.66797H64.3776C68.883 9.66797 72.4884 13.2935 72.4884 17.7787V43.667C72.4884 44.6212 72.7703 45.554 73.3003 46.3483L78.6454 54.366H17.7787C13.2733 54.366 9.66797 50.7405 9.66797 46.2552V17.7787Z" fill="white"/>
<path d="M25.5446 27.7903H56.6117C59.2805 27.7903 61.4457 25.6251 61.4457 22.9563C61.4457 20.2863 59.2805 18.1223 56.6117 18.1223H25.5446C22.8758 18.1223 20.7106 20.2863 20.7106 22.9563C20.7106 25.6251 22.8746 27.7903 25.5446 27.7903Z" fill="white"/>
<path d="M25.5446 45.9128H41.0788C43.7476 45.9128 45.9128 43.7476 45.9128 41.0789C45.9128 38.4088 43.7476 36.2449 41.0788 36.2449H25.5446C22.8758 36.2449 20.7106 38.4088 20.7106 41.0789C20.7106 43.7476 22.8746 45.9128 25.5446 45.9128Z" fill="white"/>
</g>
<defs>
<clipPath id="clip0">
<rect width="165" height="165" fill="white"/>
</clipPath>
</defs>
</svg>
