<svg width="200" height="200" viewBox="0 0 200 200" fill="none" xmlns="http://www.w3.org/2000/svg">
<path d="M189.981 37.2337H122.854C119.898 28.1361 111.322 21.6025 101.364 21.6025C101.227 21.6025 101.094 21.6106 100.96 21.6117C100.825 21.6106 100.692 21.6025 100.555 21.6025C90.3754 21.6025 81.6987 28.1396 78.487 37.2337H9.89672C7.84766 37.2337 6.18846 38.894 6.18846 40.9408V141.758C6.18846 143.804 7.84766 145.466 9.89672 145.466H77.6682V168.857H66.8978C64.851 168.857 63.1907 170.518 63.1907 172.566C63.1907 174.613 64.851 176.273 66.8978 176.273H131.167C133.214 176.273 134.875 174.613 134.875 172.566C134.875 170.518 133.214 168.857 131.167 168.857H122.3V145.466H189.981C192.029 145.466 193.688 143.804 193.688 141.758V40.9408C193.688 38.894 192.029 37.2337 189.981 37.2337ZM101.427 75.8023H99.6839C91.2744 75.3494 84.5711 68.3652 84.5711 59.8444V53.3418C87.3849 53.9082 89.8583 54.196 92.0037 54.196C94.1433 54.196 95.9665 53.914 97.4892 53.3532C98.621 52.9359 99.7217 52.5128 100.782 52.1045C106.118 50.0532 110.722 48.2816 114.566 49.1852C115.197 49.3342 115.853 49.3801 116.54 49.3239V59.8444C116.54 68.3652 109.836 75.3494 101.427 75.8023ZM116.228 41.8569C116.147 41.8822 116.079 41.904 116.035 41.9143C110.048 40.5945 104.252 42.8236 98.121 45.1822C97.081 45.5836 96.0158 45.9918 94.9253 46.3942C94.016 46.7291 91.2572 47.2898 84.5757 45.759C84.6009 36.658 91.905 29.2438 100.96 29.0282C108.517 29.2163 114.788 34.6709 116.228 41.8569ZM13.605 44.649H77.1649C77.1637 44.766 77.1568 44.8841 77.1568 45.0022V59.8444C77.1568 66.0077 79.5556 71.6194 83.4669 75.8023H82.0519C71.7619 75.8023 62.294 80.9668 56.719 89.6137C50.7702 98.8454 47.6261 109.529 47.6261 120.51V138.05H13.605V44.649ZM114.886 168.857H85.0848V145.466H114.886V168.857ZM130.692 138.05V112.415C130.692 110.368 129.032 108.708 126.984 108.708C124.937 108.708 123.277 110.368 123.277 112.415V138.05H77.8345V112.415C77.8345 110.368 76.1753 108.708 74.1262 108.708C72.0795 108.708 70.4191 110.368 70.4191 112.415V138.05H55.0426V120.51C55.0426 110.956 57.7773 101.662 62.951 93.6316C67.1546 87.1106 74.2937 83.2189 82.0507 83.2189H96.8471V97.6907C96.8471 99.7375 98.5086 101.399 100.555 101.399C102.603 101.399 104.264 99.7375 104.264 97.6907V83.2189H118.572C126.329 83.2189 133.469 87.1106 137.67 93.6316C142.846 101.662 145.581 110.956 145.581 120.51V138.05H130.692ZM186.273 138.05H152.996V120.51C152.996 109.529 149.852 98.8454 143.903 89.6137C138.329 80.9668 128.86 75.8023 118.572 75.8023H117.646C121.555 71.6194 123.956 66.0077 123.956 59.8444V45.0022C123.956 44.8841 123.948 44.766 123.947 44.649H186.273V138.05Z" fill="white"/>
<path d="M50.3826 56.5169C50.3826 54.4678 48.7234 52.8086 46.6755 52.8086H28.5802C26.5335 52.8086 24.8731 54.4678 24.8731 56.5169V75.471C24.8731 77.5177 26.5335 79.1792 28.5802 79.1792C30.6293 79.1792 32.2885 77.5177 32.2885 75.471V60.224H46.6755C48.7234 60.224 50.3826 58.5636 50.3826 56.5169Z" fill="white"/>
<path d="M59.0662 59.4305L59.1636 59.505C59.8344 60.0141 60.6222 60.2618 61.4053 60.2618C62.5233 60.2618 63.6298 59.7561 64.3591 58.7987C65.5975 57.1693 65.2821 54.8427 63.6528 53.6021L63.5553 53.5287C61.9248 52.288 59.5994 52.6056 58.3598 54.235C57.1192 55.8644 57.4356 58.1898 59.0662 59.4305Z" fill="white"/>
<path d="M102.898 109.501L102.802 109.427C101.17 108.188 98.8446 108.504 97.6062 110.133C96.3655 111.762 96.682 114.089 98.3114 115.33L98.41 115.403C99.0808 115.913 99.8685 116.16 100.652 116.16C101.77 116.16 102.876 115.656 103.605 114.697C104.844 113.067 104.527 110.742 102.898 109.501Z" fill="white"/>
</svg>
