<svg width="30" height="30" viewBox="0 0 30 30" fill="none" xmlns="http://www.w3.org/2000/svg">
<g filter="url(#filter0_i)">
<path fill-rule="evenodd" clip-rule="evenodd" d="M22.5 5H23.75C25.125 5 26.25 6.125 26.25 7.5V25C26.25 26.375 25.125 27.5 23.75 27.5H6.25C4.8625 27.5 3.75 26.375 3.75 25V7.5C3.75 6.125 4.8625 5 6.25 5H7.5V2.5H10V5H20V2.5H22.5V5ZM6.25 12.5V25H23.75V12.5H6.25ZM23.75 10H6.25V7.5H23.75V10ZM15 15H8.75V21.25H15V15Z" fill="white"/>
</g>
<defs>
<filter id="filter0_i" x="0" y="0" width="30" height="34" filterUnits="userSpaceOnUse" color-interpolation-filters="sRGB">
<feFlood flood-opacity="0" result="BackgroundImageFix"/>
<feBlend mode="normal" in="SourceGraphic" in2="BackgroundImageFix" result="shape"/>
<feColorMatrix in="SourceAlpha" type="matrix" values="0 0 0 0 0 0 0 0 0 0 0 0 0 0 0 0 0 0 127 0" result="hardAlpha"/>
<feOffset dy="4"/>
<feGaussianBlur stdDeviation="2"/>
<feComposite in2="hardAlpha" operator="arithmetic" k2="-1" k3="1"/>
<feColorMatrix type="matrix" values="0 0 0 0 0 0 0 0 0 0 0 0 0 0 0 0 0 0 0.25 0"/>
<feBlend mode="normal" in2="shape" result="effect1_innerShadow"/>
</filter>
</defs>
</svg>
