<svg width="24" height="25" viewBox="0 0 24 25" fill="none" xmlns="http://www.w3.org/2000/svg">
<path d="M19.9855 15.625H18.5206C18.3263 15.625 18.14 15.7073 18.0027 15.8538C17.8653 16.0003 17.7881 16.199 17.7881 16.4062V21.875H3.1397V6.25H9.7315C9.92575 6.25 10.112 6.16768 10.2494 6.02118C10.3868 5.87467 10.4639 5.67595 10.4639 5.46875V3.90625C10.4639 3.69905 10.3868 3.50033 10.2494 3.35382C10.112 3.20732 9.92575 3.125 9.7315 3.125H2.40728C1.82453 3.125 1.26566 3.37193 0.853594 3.81147C0.441519 4.251 0.210022 4.84715 0.210022 5.46875V22.6563C0.210022 23.2778 0.441519 23.874 0.853594 24.3135C1.26566 24.753 1.82453 25 2.40728 25H18.5206C19.1033 25 19.6622 24.753 20.0742 24.3135C20.4864 23.874 20.7178 23.2778 20.7178 22.6563V16.4062C20.7178 16.199 20.6406 16.0003 20.5033 15.8538C20.3659 15.7073 20.1797 15.625 19.9855 15.625ZM22.5489 0H16.6895C15.7112 0 15.2223 1.26514 15.9113 2.00195L17.5469 3.74658L6.38983 15.6431C6.28741 15.7519 6.20614 15.8813 6.15069 16.0238C6.09525 16.1662 6.0667 16.3189 6.0667 16.4732C6.0667 16.6274 6.09525 16.7802 6.15069 16.9225C6.20614 17.065 6.28741 17.1943 6.38983 17.3032L7.42758 18.4082C7.52966 18.5175 7.65094 18.6042 7.78447 18.6633C7.91802 18.7225 8.06119 18.7528 8.20578 18.7528C8.35037 18.7528 8.49355 18.7225 8.62709 18.6633C8.76063 18.6042 8.88191 18.5175 8.98398 18.4082L20.1356 6.50977L21.7706 8.25195C22.4573 8.98437 23.6475 8.47168 23.6475 7.42187V1.17188C23.6475 0.861075 23.5317 0.563003 23.3258 0.343235C23.1197 0.123465 22.8403 0 22.5489 0Z" fill="white"/>
</svg>
