<svg width="30" height="30" viewBox="0 0 30 30" fill="none" xmlns="http://www.w3.org/2000/svg">
<g id="add_photo_alternate_24px">
<path id="icon/image/add_photo_alternate_24px" fill-rule="evenodd" clip-rule="evenodd" d="M24.375 1.875V5.625H28.125V8.125H24.375V11.8625C24.375 11.8625 21.8875 11.875 21.875 11.8625V8.125H18.125C18.125 8.125 18.1375 5.6375 18.125 5.625H21.875V1.875H24.375ZM21.875 25.625H4.375V8.125H15.625V5.625H4.375C3 5.625 1.875 6.75 1.875 8.125V25.625C1.875 27 3 28.125 4.375 28.125H21.875C23.25 28.125 24.375 27 24.375 25.625V14.375H21.875V25.625ZM12.1375 21.6625L9.6875 18.7125L6.25 23.125H20L15.575 17.2375L12.1375 21.6625Z" fill="white" fill-opacity="0.54"/>
</g>
</svg>
