<svg width="120" height="120" viewBox="0 0 120 120" fill="none" xmlns="http://www.w3.org/2000/svg">
<path d="M107.5 0H12.4999C5.59992 0.00820312 0.00820313 5.59992 0 12.4999V107.5C0.00820313 114.4 5.59992 119.992 12.4999 120H107.5C114.4 119.992 119.992 114.4 120 107.5V12.4999C119.992 5.59992 114.4 0.00820312 107.5 0ZM115 107.5C115 111.642 111.642 115 107.5 115H12.4999C8.35781 115 4.99992 111.642 4.99992 107.5V12.4999C4.99992 8.35781 8.35781 4.99992 12.4999 4.99992H107.5C111.642 4.99992 115 8.35781 115 12.4999V107.5H115Z" fill="white"/>
<path d="M110 20H10.0001V24.9999H110V20Z" fill="white"/>
<path d="M17.4998 10H12.4999V14.9999H17.4998V10Z" fill="white"/>
<path d="M27.4999 10H22.5V14.9999H27.4999V10Z" fill="white"/>
<path d="M107.5 10H102.5V14.9999H107.5V10Z" fill="white"/>
<path d="M60 37.5C42.0509 37.5 27.4999 52.0507 27.4999 70.0001C27.4999 87.9495 42.0509 102.5 60 102.5C77.9407 102.479 92.4792 87.9405 92.5001 69.9998C92.5001 52.0507 77.9491 37.5 60 37.5ZM60 97.5C44.8123 97.5 32.5001 85.1878 32.5001 70.0001C32.5001 54.8123 44.8123 42.4999 60 42.4999C75.1805 42.5177 87.4821 54.8196 87.4999 69.9998C87.4999 85.1878 75.1877 97.5 60 97.5Z" fill="white"/>
<path d="M65.3034 54.0903L60.0001 59.3936L54.6968 54.0903C52.7442 52.1377 49.5785 52.1377 47.6258 54.0903L44.0904 57.6257C42.1378 59.5784 42.1378 62.7441 44.0904 64.6967L49.3937 70L44.0904 75.3033C42.1378 77.2559 42.1378 80.4216 44.0904 82.3743L47.6258 85.9097C49.5785 87.8623 52.7442 87.8623 54.6968 85.9097L60.0001 80.6064L65.3034 85.9097C67.256 87.8623 70.4218 87.8623 72.3744 85.9097L75.9098 82.3743C77.8624 80.4216 77.8624 77.2559 75.9098 75.3033L70.6065 70L75.9098 64.6967C77.8624 62.7441 77.8625 59.5784 75.9098 57.6257L72.3744 54.0903C70.4218 52.1377 67.256 52.1377 65.3034 54.0903ZM72.3744 61.1612L65.3032 68.2323C64.3269 69.2086 64.3269 70.7917 65.3032 71.768L72.3744 78.8391L68.8389 82.3746L61.7678 75.3035C60.7915 74.3272 59.2084 74.3272 58.2321 75.3035L51.1612 82.3744L47.6257 78.8389L54.6968 71.7678C55.6731 70.7915 55.6731 69.2085 54.6968 68.2322L47.6257 61.1611L51.1612 57.6256L58.2323 64.6967C59.2086 65.673 60.7916 65.673 61.7679 64.6967L68.8389 57.6257L72.3744 61.1612Z" fill="#E74545"/>
</svg>
