<svg width="148" height="170" viewBox="0 0 148 170" fill="none" xmlns="http://www.w3.org/2000/svg">
<path d="M100.997 92.7586L116.472 95.8298C117.016 104.526 124.507 111.135 133.203 110.591C141.899 110.047 148.508 102.557 147.964 93.8602C147.42 85.1639 139.93 78.5555 131.233 79.0992C125.596 79.4518 120.577 82.7914 118.074 87.8557L102.06 84.6775C101.886 78.6116 99.5389 72.81 95.4462 68.3292L117.034 37.8336C127.031 42.1691 138.649 37.5798 142.984 27.5837C147.319 17.5877 142.73 5.969 132.734 1.63386C122.738 -2.70129 111.119 1.88762 106.784 11.8837C103.674 19.0562 105.091 27.3885 110.399 33.1283L89.0675 63.2629C78.8616 57.5353 66.0615 59.539 58.0944 68.1113L30.1408 46.4026C33.8318 38.4895 30.4088 29.0831 22.4961 25.3922C14.5831 21.7012 5.17669 25.1242 1.48572 33.0368C-2.20526 40.9499 1.21772 50.3563 9.13038 54.0472C14.2638 56.4417 20.2863 55.9066 24.9175 52.6446L53.5551 74.884C48.9548 84.9317 51.3907 96.8017 59.5771 104.225L42.4228 128.485C32.2958 122.839 19.5091 126.471 13.8633 136.598C8.21739 146.725 11.8498 159.512 21.9768 165.158C32.1038 170.804 44.8905 167.171 50.5363 157.044C54.6759 149.619 53.9292 140.431 48.6449 133.772L66.3958 108.666C72.5809 111.409 79.6066 111.564 85.9064 109.095L107.127 140.442C100.637 147.833 101.369 159.085 108.759 165.574C116.15 172.063 127.402 171.332 133.891 163.941C140.38 156.55 139.649 145.298 132.258 138.81C127.177 134.348 120.006 133.149 113.749 135.716L92.9199 104.946C96.7451 101.759 99.5532 97.5228 100.997 92.7586ZM132.211 87.2018C136.43 87.2018 139.85 90.6219 139.85 94.8407C139.85 99.0596 136.43 102.48 132.211 102.48C127.992 102.48 124.572 99.0596 124.572 94.8407C124.575 90.6231 127.994 87.205 132.211 87.2018ZM124.831 8.2293C131.205 8.22971 136.373 13.3973 136.372 19.7715C136.372 26.1457 131.204 31.3133 124.83 31.3129C118.456 31.3125 113.289 26.1453 113.289 19.7711C113.296 13.3993 118.459 8.23621 124.831 8.2293ZM15.8417 47.3932C11.6249 47.3884 8.20763 43.9711 8.20275 39.7543C8.20275 35.5354 11.6229 32.1153 15.8417 32.1153C20.0606 32.1153 23.4807 35.5354 23.4807 39.7543C23.4807 43.9731 20.061 47.3932 15.8417 47.3932ZM32.2527 159.578C25.1814 159.577 19.4493 153.845 19.4497 146.774C19.4501 139.703 25.1822 133.971 32.2535 133.971C39.3243 133.971 45.0564 139.703 45.0564 146.774C45.0487 153.842 39.3206 159.57 32.2527 159.578ZM120.505 142.518C125.863 142.524 130.204 146.865 130.21 152.223C130.21 157.583 125.865 161.928 120.505 161.928C115.145 161.928 110.801 157.583 110.801 152.223C110.801 146.863 115.146 142.518 120.505 142.518ZM76.6651 102.709C67.1266 102.699 59.3965 94.9684 59.3859 85.4299C59.3859 75.8869 67.1221 68.1507 76.6651 68.1507C86.2081 68.1507 93.9443 75.8869 93.9443 85.4299C93.9443 94.9729 86.2081 102.709 76.6651 102.709Z" fill="white"/>
</svg>
